<svg width="325" height="50" viewBox="0 0 325 50" fill="none" xmlns="http://www.w3.org/2000/svg">
<path d="M78.6893 40.7178H72.6738V16.2826C72.6738 14.5817 73.0057 13.1504 73.6695 11.9888C74.3471 10.8134 75.2944 9.92834 76.5113 9.33371C77.742 8.72525 79.2009 8.42102 80.888 8.42102C81.4412 8.42102 81.9736 8.46251 82.4852 8.54548C82.9969 8.61463 83.4947 8.70451 83.9787 8.81514L83.9165 13.3164C83.6538 13.2472 83.3772 13.1988 83.0868 13.1712C82.7964 13.1435 82.4576 13.1297 82.0704 13.1297C81.3513 13.1297 80.7359 13.2541 80.2243 13.503C79.7264 13.7381 79.3461 14.0908 79.0834 14.5609C78.8207 15.0311 78.6893 15.605 78.6893 16.2826V40.7178ZM83.1698 18.2739V22.5055H69.3342V18.2739H83.1698ZM85.3478 29.724V29.2884C85.3478 27.6428 85.5829 26.1286 86.053 24.7457C86.5232 23.349 87.2077 22.139 88.1066 21.1157C89.0054 20.0924 90.1117 19.2972 91.4254 18.7303C92.7392 18.1495 94.2465 17.8591 95.9474 17.8591C97.6483 17.8591 99.1626 18.1495 100.49 18.7303C101.818 19.2972 102.931 20.0924 103.83 21.1157C104.742 22.139 105.434 23.349 105.904 24.7457C106.374 26.1286 106.609 27.6428 106.609 29.2884V29.724C106.609 31.3558 106.374 32.87 105.904 34.2667C105.434 35.6496 104.742 36.8596 103.83 37.8967C102.931 38.9201 101.825 39.7152 100.511 40.2822C99.1971 40.8491 97.6898 41.1326 95.9889 41.1326C94.288 41.1326 92.7737 40.8491 91.4462 40.2822C90.1325 39.7152 89.0193 38.9201 88.1066 37.8967C87.2077 36.8596 86.5232 35.6496 86.053 34.2667C85.5829 32.87 85.3478 31.3558 85.3478 29.724ZM91.3217 29.2884V29.724C91.3217 30.6644 91.4047 31.5425 91.5706 32.3584C91.7366 33.1743 91.9993 33.8933 92.3589 34.5156C92.7323 35.1241 93.2163 35.6012 93.8109 35.9469C94.4055 36.2926 95.1315 36.4655 95.9889 36.4655C96.8186 36.4655 97.5308 36.2926 98.1254 35.9469C98.72 35.6012 99.1971 35.1241 99.5567 34.5156C99.9162 33.8933 100.179 33.1743 100.345 32.3584C100.525 31.5425 100.615 30.6644 100.615 29.724V29.2884C100.615 28.3757 100.525 27.5184 100.345 26.7163C100.179 25.9004 99.9093 25.1813 99.5359 24.559C99.1764 23.9229 98.6993 23.4251 98.1047 23.0655C97.51 22.706 96.791 22.5262 95.9474 22.5262C95.1039 22.5262 94.3848 22.706 93.7901 23.0655C93.2093 23.4251 92.7323 23.9229 92.3589 24.559C91.9993 25.1813 91.7366 25.9004 91.5706 26.7163C91.4047 27.5184 91.3217 28.3757 91.3217 29.2884ZM109.327 29.724V29.2884C109.327 27.6428 109.562 26.1286 110.032 24.7457C110.502 23.349 111.187 22.139 112.085 21.1157C112.984 20.0924 114.091 19.2972 115.404 18.7303C116.718 18.1495 118.225 17.8591 119.926 17.8591C121.627 17.8591 123.141 18.1495 124.469 18.7303C125.796 19.2972 126.91 20.0924 127.809 21.1157C128.721 22.139 129.413 23.349 129.883 24.7457C130.353 26.1286 130.588 27.6428 130.588 29.2884V29.724C130.588 31.3558 130.353 32.87 129.883 34.2667C129.413 35.6496 128.721 36.8596 127.809 37.8967C126.91 38.9201 125.803 39.7152 124.49 40.2822C123.176 40.8491 121.669 41.1326 119.968 41.1326C118.267 41.1326 116.753 40.8491 115.425 40.2822C114.111 39.7152 112.998 38.9201 112.085 37.8967C111.187 36.8596 110.502 35.6496 110.032 34.2667C109.562 32.87 109.327 31.3558 109.327 29.724ZM115.301 29.2884V29.724C115.301 30.6644 115.384 31.5425 115.549 32.3584C115.715 33.1743 115.978 33.8933 116.338 34.5156C116.711 35.1241 117.195 35.6012 117.79 35.9469C118.384 36.2926 119.11 36.4655 119.968 36.4655C120.797 36.4655 121.51 36.2926 122.104 35.9469C122.699 35.6012 123.176 35.1241 123.536 34.5156C123.895 33.8933 124.158 33.1743 124.324 32.3584C124.504 31.5425 124.593 30.6644 124.593 29.724V29.2884C124.593 28.3757 124.504 27.5184 124.324 26.7163C124.158 25.9004 123.888 25.1813 123.515 24.559C123.155 23.9229 122.678 23.4251 122.084 23.0655C121.489 22.706 120.77 22.5262 119.926 22.5262C119.083 22.5262 118.364 22.706 117.769 23.0655C117.188 23.4251 116.711 23.9229 116.338 24.559C115.978 25.1813 115.715 25.9004 115.549 26.7163C115.384 27.5184 115.301 28.3757 115.301 29.2884ZM147.514 35.8224V8.85663H153.53V40.7178H148.116L147.514 35.8224ZM133.326 29.7655V29.3299C133.326 27.6152 133.52 26.0594 133.907 24.6627C134.294 23.2522 134.861 22.0422 135.608 21.0327C136.355 20.0232 137.274 19.2419 138.367 18.6888C139.459 18.1356 140.704 17.8591 142.1 17.8591C143.414 17.8591 144.562 18.1356 145.544 18.6888C146.539 19.2419 147.383 20.0302 148.074 21.0535C148.78 22.063 149.347 23.2591 149.775 24.642C150.204 26.011 150.515 27.5114 150.709 29.1432V30.0974C150.515 31.66 150.204 33.112 149.775 34.4534C149.347 35.7948 148.78 36.9702 148.074 37.9797C147.383 38.9754 146.539 39.7498 145.544 40.3029C144.548 40.8561 143.386 41.1326 142.059 41.1326C140.662 41.1326 139.418 40.8491 138.325 40.2822C137.247 39.7152 136.334 38.9201 135.587 37.8967C134.854 36.8734 134.294 35.6703 133.907 34.2875C133.52 32.9046 133.326 31.3973 133.326 29.7655ZM139.3 29.3299V29.7655C139.3 30.692 139.369 31.5563 139.508 32.3584C139.66 33.1604 139.902 33.8726 140.234 34.4949C140.579 35.1034 141.022 35.5804 141.561 35.9262C142.114 36.258 142.785 36.424 143.573 36.424C144.597 36.424 145.44 36.1958 146.104 35.7395C146.768 35.2693 147.272 34.6263 147.618 33.8104C147.978 32.9945 148.185 32.0541 148.24 30.9893V28.272C148.199 27.4008 148.074 26.6195 147.867 25.9281C147.673 25.2228 147.383 24.6213 146.996 24.1234C146.622 23.6256 146.152 23.2384 145.585 22.9618C145.032 22.6852 144.375 22.547 143.615 22.547C142.84 22.547 142.176 22.7267 141.623 23.0863C141.07 23.432 140.621 23.9091 140.275 24.5175C139.943 25.126 139.694 25.8451 139.528 26.6748C139.376 27.4907 139.3 28.3757 139.3 29.3299ZM179.106 41.1326C177.363 41.1326 175.801 40.8561 174.418 40.3029C173.035 39.7359 171.86 38.9546 170.892 37.959C169.937 36.9633 169.205 35.8086 168.693 34.4949C168.181 33.1673 167.925 31.7568 167.925 30.2633V29.4336C167.925 27.7327 168.167 26.177 168.651 24.7665C169.135 23.3559 169.827 22.1321 170.726 21.095C171.638 20.0578 172.745 19.2627 174.045 18.7095C175.344 18.1425 176.81 17.8591 178.442 17.8591C180.032 17.8591 181.443 18.1218 182.674 18.6473C183.904 19.1728 184.935 19.9195 185.764 20.8875C186.608 21.8555 187.244 23.0171 187.673 24.3723C188.101 25.7137 188.316 27.2072 188.316 28.8528V31.342H170.477V27.3593H182.445V26.903C182.445 26.0733 182.293 25.3334 181.989 24.6835C181.699 24.0197 181.256 23.4942 180.662 23.107C180.067 22.7198 179.306 22.5262 178.38 22.5262C177.592 22.5262 176.914 22.6991 176.347 23.0448C175.78 23.3905 175.317 23.8745 174.957 24.4968C174.612 25.1191 174.349 25.852 174.169 26.6955C174.003 27.5253 173.92 28.438 173.92 29.4336V30.2633C173.92 31.1622 174.045 31.9919 174.293 32.7525C174.556 33.5131 174.923 34.1699 175.393 34.7231C175.877 35.2762 176.458 35.7049 177.135 36.0091C177.827 36.3134 178.608 36.4655 179.479 36.4655C180.558 36.4655 181.56 36.258 182.487 35.8432C183.427 35.4145 184.236 34.7715 184.914 33.9141L187.818 37.067C187.348 37.7446 186.705 38.3946 185.889 39.0169C185.087 39.6391 184.119 40.1508 182.985 40.5518C181.851 40.939 180.558 41.1326 179.106 41.1326ZM196.53 18.2739L200.243 25.0983L204.06 18.2739H210.428L204.08 29.2469L210.718 40.7178H204.329L200.284 33.4992L196.239 40.7178H189.851L196.488 29.2469L190.141 18.2739H196.53ZM219.306 22.5884V49.3468H213.332V18.2739H218.87L219.306 22.5884ZM233.515 29.2469V29.6825C233.515 31.3143 233.321 32.8285 232.934 34.2252C232.56 35.6219 232.007 36.8388 231.274 37.876C230.541 38.8993 229.629 39.7014 228.536 40.2822C227.458 40.8491 226.213 41.1326 224.803 41.1326C223.433 41.1326 222.244 40.8561 221.235 40.3029C220.225 39.7498 219.375 38.9754 218.683 37.9797C218.006 36.9702 217.46 35.8017 217.045 34.4742C216.63 33.1466 216.312 31.7223 216.09 30.2011V29.0602C216.312 27.4285 216.63 25.935 217.045 24.5798C217.46 23.2107 218.006 22.0284 218.683 21.0327C219.375 20.0232 220.218 19.2419 221.214 18.6888C222.223 18.1356 223.406 17.8591 224.761 17.8591C226.185 17.8591 227.437 18.1287 228.515 18.668C229.608 19.2074 230.521 19.9818 231.254 20.9912C232 22.0007 232.56 23.2038 232.934 24.6005C233.321 25.9972 233.515 27.546 233.515 29.2469ZM227.52 29.6825V29.2469C227.52 28.2928 227.437 27.4146 227.271 26.6126C227.119 25.7967 226.87 25.0845 226.524 24.4761C226.192 23.8676 225.75 23.3974 225.197 23.0655C224.657 22.7198 224 22.547 223.226 22.547C222.41 22.547 221.712 22.6783 221.131 22.9411C220.564 23.2038 220.101 23.5841 219.741 24.0819C219.382 24.5798 219.112 25.1744 218.932 25.8658C218.752 26.5573 218.642 27.3386 218.6 28.2098V31.0931C218.67 32.1164 218.863 33.036 219.181 33.8519C219.499 34.6539 219.99 35.29 220.654 35.7602C221.318 36.2304 222.189 36.4655 223.268 36.4655C224.056 36.4655 224.72 36.2926 225.259 35.9469C225.798 35.5874 226.234 35.0964 226.566 34.4742C226.911 33.8519 227.153 33.1328 227.292 32.3169C227.444 31.501 227.52 30.6229 227.52 29.6825ZM243.533 8.85663V40.7178H237.539V8.85663H243.533ZM247.516 29.724V29.2884C247.516 27.6428 247.751 26.1286 248.221 24.7457C248.691 23.349 249.376 22.139 250.275 21.1157C251.174 20.0924 252.28 19.2972 253.594 18.7303C254.907 18.1495 256.415 17.8591 258.116 17.8591C259.817 17.8591 261.331 18.1495 262.658 18.7303C263.986 19.2972 265.099 20.0924 265.998 21.1157C266.911 22.139 267.602 23.349 268.072 24.7457C268.542 26.1286 268.778 27.6428 268.778 29.2884V29.724C268.778 31.3558 268.542 32.87 268.072 34.2667C267.602 35.6496 266.911 36.8596 265.998 37.8967C265.099 38.9201 263.993 39.7152 262.679 40.2822C261.365 40.8491 259.858 41.1326 258.157 41.1326C256.456 41.1326 254.942 40.8491 253.614 40.2822C252.301 39.7152 251.188 38.9201 250.275 37.8967C249.376 36.8596 248.691 35.6496 248.221 34.2667C247.751 32.87 247.516 31.3558 247.516 29.724ZM253.49 29.2884V29.724C253.49 30.6644 253.573 31.5425 253.739 32.3584C253.905 33.1743 254.168 33.8933 254.527 34.5156C254.901 35.1241 255.385 35.6012 255.979 35.9469C256.574 36.2926 257.3 36.4655 258.157 36.4655C258.987 36.4655 259.699 36.2926 260.294 35.9469C260.888 35.6012 261.365 35.1241 261.725 34.5156C262.084 33.8933 262.347 33.1743 262.513 32.3584C262.693 31.5425 262.783 30.6644 262.783 29.724V29.2884C262.783 28.3757 262.693 27.5184 262.513 26.7163C262.347 25.9004 262.078 25.1813 261.704 24.559C261.345 23.9229 260.868 23.4251 260.273 23.0655C259.678 22.706 258.959 22.5262 258.116 22.5262C257.272 22.5262 256.553 22.706 255.958 23.0655C255.378 23.4251 254.901 23.9229 254.527 24.559C254.168 25.1813 253.905 25.9004 253.739 26.7163C253.573 27.5184 253.49 28.3757 253.49 29.2884ZM278.423 23.1693V40.7178H272.449V18.2739H278.07L278.423 23.1693ZM285.185 18.1287L285.081 23.6671C284.791 23.6256 284.438 23.591 284.024 23.5634C283.623 23.5219 283.256 23.5011 282.924 23.5011C282.081 23.5011 281.348 23.6118 280.725 23.833C280.117 24.0405 279.605 24.3516 279.19 24.7665C278.789 25.1813 278.485 25.6861 278.278 26.2807C278.084 26.8753 277.974 27.5529 277.946 28.3135L276.743 27.9401C276.743 26.4881 276.888 25.1537 277.178 23.9367C277.469 22.706 277.891 21.6343 278.444 20.7216C279.011 19.8089 279.702 19.1036 280.518 18.6058C281.334 18.108 282.267 17.8591 283.318 17.8591C283.65 17.8591 283.989 17.8867 284.335 17.942C284.68 17.9835 284.964 18.0457 285.185 18.1287ZM297.921 41.1326C296.179 41.1326 294.616 40.8561 293.233 40.3029C291.851 39.7359 290.675 38.9546 289.707 37.959C288.753 36.9633 288.02 35.8086 287.508 34.4949C286.997 33.1673 286.741 31.7568 286.741 30.2633V29.4336C286.741 27.7327 286.983 26.177 287.467 24.7665C287.951 23.3559 288.642 22.1321 289.541 21.095C290.454 20.0578 291.56 19.2627 292.86 18.7095C294.16 18.1425 295.626 17.8591 297.258 17.8591C298.848 17.8591 300.258 18.1218 301.489 18.6473C302.72 19.1728 303.75 19.9195 304.58 20.8875C305.423 21.8555 306.059 23.0171 306.488 24.3723C306.917 25.7137 307.131 27.2072 307.131 28.8528V31.342H289.292V27.3593H301.261V26.903C301.261 26.0733 301.109 25.3334 300.805 24.6835C300.514 24.0197 300.072 23.4942 299.477 23.107C298.882 22.7198 298.122 22.5262 297.195 22.5262C296.407 22.5262 295.73 22.6991 295.163 23.0448C294.596 23.3905 294.132 23.8745 293.773 24.4968C293.427 25.1191 293.164 25.852 292.985 26.6955C292.819 27.5253 292.736 28.438 292.736 29.4336V30.2633C292.736 31.1622 292.86 31.9919 293.109 32.7525C293.372 33.5131 293.738 34.1699 294.208 34.7231C294.692 35.2762 295.273 35.7049 295.951 36.0091C296.642 36.3134 297.424 36.4655 298.295 36.4655C299.373 36.4655 300.376 36.258 301.302 35.8432C302.243 35.4145 303.052 34.7715 303.729 33.9141L306.633 37.067C306.163 37.7446 305.52 38.3946 304.704 39.0169C303.902 39.6391 302.934 40.1508 301.8 40.5518C300.666 40.939 299.373 41.1326 297.921 41.1326ZM316.507 23.1693V40.7178H310.533V18.2739H316.154L316.507 23.1693ZM323.269 18.1287L323.166 23.6671C322.875 23.6256 322.522 23.591 322.108 23.5634C321.707 23.5219 321.34 23.5011 321.008 23.5011C320.165 23.5011 319.432 23.6118 318.809 23.833C318.201 24.0405 317.689 24.3516 317.275 24.7665C316.873 25.1813 316.569 25.6861 316.362 26.2807C316.168 26.8753 316.058 27.5529 316.03 28.3135L314.827 27.9401C314.827 26.4881 314.972 25.1537 315.262 23.9367C315.553 22.706 315.975 21.6343 316.528 20.7216C317.095 19.8089 317.786 19.1036 318.602 18.6058C319.418 18.108 320.351 17.8591 321.402 17.8591C321.734 17.8591 322.073 17.8867 322.419 17.942C322.764 17.9835 323.048 18.0457 323.269 18.1287Z" fill="white"/>
<path d="M25.0318 1.21651L46.4349 13.0919V36.8426L25.0318 48.7179L3.6287 36.8426V13.0919L25.0318 1.21651Z" fill="#065E7C"/>
</svg>
